<svg width="841" height="841" viewBox="0 0 841 841" fill="none" xmlns="http://www.w3.org/2000/svg">
<g filter="url(#filter0_dd_45_13)">
<path d="M278.319 402.302C284.105 393.591 289.612 383.548 294.458 373.777C302.32 357.927 308.632 342.406 311.768 333.591C318.619 314.335 336.473 275.353 360.013 248.38L360.132 248.245L360.237 248.099C364.903 241.668 370.126 236.202 375.678 230.393C389.907 215.505 406.296 198.356 421 156.897C435.705 198.356 452.093 215.505 466.322 230.393C471.874 236.202 477.097 241.668 481.763 248.099L481.868 248.245L481.987 248.38C505.527 275.353 523.381 314.335 530.232 333.591C533.368 342.406 539.68 357.927 547.542 373.777C552.388 383.548 557.895 393.591 563.681 402.302C556.431 398.674 548.745 394.854 541.083 391.046C524.211 382.661 507.455 374.334 495.713 368.228C504.656 352.758 512.982 321.216 488.114 292.734C479.171 280.752 465.047 265.639 452.18 253.525C445.716 247.44 439.492 242.038 434.328 238.13C431.753 236.182 429.365 234.547 427.293 233.379C426.257 232.796 425.233 232.29 424.254 231.922C423.321 231.571 422.186 231.25 421 231.25C419.814 231.25 418.68 231.571 417.747 231.922C416.768 232.29 415.743 232.796 414.707 233.379C412.635 234.547 410.247 236.182 407.672 238.13C402.508 242.038 396.284 247.44 389.82 253.525C376.953 265.639 362.829 280.752 353.886 292.734C329.018 321.216 337.344 352.758 346.287 368.228C334.546 374.334 317.79 382.661 300.918 391.046C293.256 394.854 285.57 398.673 278.319 402.302Z" fill="#D1B1FF" stroke="#FFEAFF" stroke-width="8"/>
<path d="M471.5 359.726C431.5 352.073 421.5 289.22 421.5 258.75C421.5 289.22 411.5 352.073 371.5 359.726C424.159 380.453 416.358 458.576 421.5 503.75C426.642 458.576 418.84 380.453 471.5 359.726Z" fill="#FFEAFF"/>
</g>
<path d="M260.43 652.423C254.944 652.423 250.134 651.031 245.999 648.246C241.944 645.461 238.764 641.721 236.459 637.027C234.153 632.253 233 626.882 233 620.914C233 614.708 234.312 609.178 236.936 604.325C239.639 599.391 243.455 595.493 248.385 592.628C253.393 589.764 259.317 588.331 266.154 588.331C272.992 588.331 278.796 589.764 283.566 592.628C288.416 595.493 292.113 599.352 294.657 604.205C297.281 609.059 298.593 614.509 298.593 620.556V650.991H280.465V641.204H279.988C278.239 644.387 275.814 647.052 272.714 649.201C269.613 651.349 265.518 652.423 260.43 652.423ZM265.916 636.43C270.13 636.43 273.469 634.918 275.934 631.895C278.478 628.792 279.75 624.933 279.75 620.318C279.75 615.941 278.478 612.242 275.934 609.218C273.469 606.115 270.13 604.563 265.916 604.563C261.543 604.563 258.084 606.115 255.54 609.218C253.075 612.242 251.843 615.941 251.843 620.318C251.843 624.853 253.075 628.672 255.54 631.775C258.084 634.878 261.543 636.43 265.916 636.43ZM342.794 652.423C336.513 652.423 331.066 651.23 326.455 648.843C321.923 646.376 318.425 643.074 315.96 638.936C313.495 634.719 312.263 630.065 312.263 624.972V589.764H330.748V624.495C330.748 627.678 331.861 630.462 334.088 632.85C336.393 635.157 339.256 636.311 342.674 636.311C346.014 636.311 348.796 635.157 351.023 632.85C353.328 630.462 354.481 627.678 354.481 624.495V589.764H372.966V624.972C372.966 630.065 371.774 634.719 369.389 638.936C367.003 643.074 363.545 646.376 359.013 648.843C354.481 651.23 349.075 652.423 342.794 652.423ZM386.324 650.991V607.786C386.324 602.216 387.874 597.84 390.975 594.657C394.155 591.474 398.607 589.883 404.332 589.883H422.102V604.921H408.864C407.671 604.921 406.677 605.319 405.882 606.115C405.167 606.91 404.809 607.865 404.809 608.979V650.991H386.324ZM430.359 650.991V589.764H448.963V650.991H430.359ZM439.661 582.841C436.719 582.841 434.175 581.767 432.028 579.619C429.882 577.47 428.808 574.924 428.808 571.98C428.808 568.957 429.882 566.371 432.028 564.222C434.175 562.074 436.719 561 439.661 561C442.682 561 445.226 562.074 447.294 564.222C449.44 566.371 450.514 568.957 450.514 571.98C450.514 574.924 449.44 577.47 447.294 579.619C445.226 581.767 442.682 582.841 439.661 582.841ZM484.924 650.991C479.279 650.991 474.866 649.4 471.686 646.217C468.506 643.034 466.915 638.658 466.915 633.088V604.921H456.898V589.764H466.915V574.845H485.52V589.764H502.336V604.921H485.52V632.014C485.52 633.048 485.838 633.884 486.474 634.52C487.11 635.157 487.945 635.475 488.979 635.475H502.336V650.991H484.924ZM513.631 650.991V589.764H532.235V650.991H513.631ZM522.933 582.841C519.991 582.841 517.447 581.767 515.3 579.619C513.154 577.47 512.08 574.924 512.08 571.98C512.08 568.957 513.154 566.371 515.3 564.222C517.447 562.074 519.991 561 522.933 561C525.954 561 528.498 562.074 530.565 564.222C532.712 566.371 533.786 568.957 533.786 571.98C533.786 574.924 532.712 577.47 530.565 579.619C528.498 581.767 525.954 582.841 522.933 582.841ZM570.342 652.423C564.856 652.423 560.046 651.031 555.912 648.246C551.857 645.461 548.677 641.721 546.371 637.027C544.065 632.253 542.913 626.882 542.913 620.914C542.913 614.708 544.224 609.178 546.848 604.325C549.551 599.391 553.368 595.493 558.297 592.628C563.306 589.764 569.229 588.331 576.067 588.331C582.904 588.331 588.708 589.764 593.479 592.628C598.329 595.493 602.026 599.352 604.57 604.205C607.194 609.059 608.506 614.509 608.506 620.556V650.991H590.378V641.204H589.901C588.152 644.387 585.727 647.052 582.626 649.201C579.525 651.349 575.431 652.423 570.342 652.423ZM575.828 636.43C580.042 636.43 583.381 634.918 585.846 631.895C588.39 628.792 589.663 624.933 589.663 620.318C589.663 615.941 588.39 612.242 585.846 609.218C583.381 606.115 580.042 604.563 575.828 604.563C571.455 604.563 567.997 606.115 565.453 609.218C562.988 612.242 561.756 615.941 561.756 620.318C561.756 624.853 562.988 628.672 565.453 631.775C567.997 634.878 571.455 636.43 575.828 636.43Z" fill="white"/>
<defs>
<filter id="filter0_dd_45_13" x="171.5" y="51.25" width="499" height="545.5" filterUnits="userSpaceOnUse" color-interpolation-filters="sRGB">
<feFlood flood-opacity="0" result="BackgroundImageFix"/>
<feColorMatrix in="SourceAlpha" type="matrix" values="0 0 0 0 0 0 0 0 0 0 0 0 0 0 0 0 0 0 127 0" result="hardAlpha"/>
<feOffset/>
<feGaussianBlur stdDeviation="12.5"/>
<feComposite in2="hardAlpha" operator="out"/>
<feColorMatrix type="matrix" values="0 0 0 0 0.460417 0 0 0 0 0.3 0 0 0 0 1 0 0 0 1 0"/>
<feBlend mode="normal" in2="BackgroundImageFix" result="effect1_dropShadow_45_13"/>
<feColorMatrix in="SourceAlpha" type="matrix" values="0 0 0 0 0 0 0 0 0 0 0 0 0 0 0 0 0 0 127 0" result="hardAlpha"/>
<feOffset/>
<feGaussianBlur stdDeviation="46.5"/>
<feComposite in2="hardAlpha" operator="out"/>
<feColorMatrix type="matrix" values="0 0 0 0 0.564706 0 0 0 0 0.435294 0 0 0 0 1 0 0 0 1 0"/>
<feBlend mode="normal" in2="effect1_dropShadow_45_13" result="effect2_dropShadow_45_13"/>
<feBlend mode="normal" in="SourceGraphic" in2="effect2_dropShadow_45_13" result="shape"/>
</filter>
</defs>
</svg>