<svg width="366" height="366" viewBox="0 0 366 366" fill="none" xmlns="http://www.w3.org/2000/svg">
<g clip-path="url(#clip0_100_11)">
<g filter="url(#filter0_d_100_11)">
<path d="M214.5 124L258.5 42.5L279 41.5L301.5 52.5L312 72L267 156L223 194L276.5 200.5L333.5 265.5L331 289.5L309.5 306.5L279 309L229 250.5L218 200L203 255L163.5 324H135.5L121.5 301.5L163.5 233L207.5 198L135.5 209.5L34.5 180L24.3322 154.823L24 154L30.5 122.5L52.5 105L162.5 137.5L215 187L214.5 124Z" fill="#D1B1FF"/>
<path d="M53.1464 108.319L156.81 138.947L143.139 152.618L36.883 121.256L53.1464 108.319ZM32.779 126.301L140.329 158.044L133.411 183.272L27.3573 152.575L32.779 126.301ZM29.424 159.419L132.5 189.255V205.498L36.7371 177.528L29.424 159.419ZM162.561 141.681L212.942 189.183L217.395 193.382L207.027 195.038L138.5 205.983V187.404L146.683 157.56L162.561 141.681ZM218.051 193.44L218.309 193.236L218.05 193.277L218 186.976L217.527 127.441L235.504 129.892L252.559 139.841L264.73 153.884L264.618 154.093L221.039 191.73L215.909 196.16L222.638 196.978L272.979 203.094L268.751 226.348L251.069 240.308L231.229 246.639L220.931 199.362L215.106 199.211L200.839 251.52L181.522 247.741L167.921 233.316L209.368 200.348L217.729 193.696L218.056 194.004L218.051 193.44ZM219.198 121.613L260.336 45.414L274.036 44.7457L234.772 123.737L219.198 121.613ZM253.36 133.362L240.435 125.823L280.36 45.5041L297.348 53.8094L253.36 133.362ZM258.139 137.118L301.465 58.7629L308.595 72.0036L267.763 148.223L258.139 137.118ZM274.727 227.021L278.34 207.149L330.38 266.493L328.683 282.79L274.727 227.021ZM271.23 232.035L326.539 289.203L309.85 302.399L256.867 243.374L271.23 232.035ZM251.564 246.448L303.228 304.004L280.284 305.885L234.215 251.985L251.564 246.448ZM181.481 253.847L198.318 257.141L161.761 321H140.823L181.481 253.847ZM176.252 250.898L135.465 318.265L125.026 301.488L164.008 237.911L176.252 250.898Z" stroke="#FFEAFF" stroke-width="6"/>
</g>
</g>
<defs>
<filter id="filter0_d_100_11" x="-1" y="16.5" width="359.5" height="332.5" filterUnits="userSpaceOnUse" color-interpolation-filters="sRGB">
<feFlood flood-opacity="0" result="BackgroundImageFix"/>
<feColorMatrix in="SourceAlpha" type="matrix" values="0 0 0 0 0 0 0 0 0 0 0 0 0 0 0 0 0 0 127 0" result="hardAlpha"/>
<feOffset/>
<feGaussianBlur stdDeviation="12.5"/>
<feComposite in2="hardAlpha" operator="out"/>
<feColorMatrix type="matrix" values="0 0 0 0 0.460417 0 0 0 0 0.3 0 0 0 0 1 0 0 0 1 0"/>
<feBlend mode="normal" in2="BackgroundImageFix" result="effect1_dropShadow_100_11"/>
<feBlend mode="normal" in="SourceGraphic" in2="effect1_dropShadow_100_11" result="shape"/>
</filter>
<clipPath id="clip0_100_11">
<rect width="365.5" height="365.5" fill="white"/>
</clipPath>
</defs>
</svg>