<svg width="17" height="21" viewBox="0 0 17 21" fill="none" xmlns="http://www.w3.org/2000/svg">
<mask id="path-1-inside-1_36_649" fill="white">
<path d="M11.976 6.25008C10.9713 4.86509 9.64059 4.37628 8.50001 0.737305C7.35944 4.37628 6.02874 4.86509 5.02395 6.25007C3.72044 7.74368 2.73941 9.88905 2.36262 10.9481C2.02769 11.8896 1.00479 14.2884 0 15.3747C1.43929 14.6414 3.65708 13.5642 4.75239 12.9849C4.26357 12.2969 3.63354 10.5245 5.02395 8.93857C5.97443 7.66221 8.06548 5.67979 8.50001 5.67979C8.93454 5.67979 11.0256 7.66222 11.976 8.93857C13.3665 10.5245 12.7364 12.2969 12.2476 12.9849C13.3429 13.5642 15.5607 14.6414 17 15.3747C15.9952 14.2884 14.9723 11.8896 14.6374 10.9482C14.2606 9.88905 13.2796 7.74368 11.976 6.25008Z"/>
</mask>
<path d="M11.976 6.25008C10.9713 4.86509 9.64059 4.37628 8.50001 0.737305C7.35944 4.37628 6.02874 4.86509 5.02395 6.25007C3.72044 7.74368 2.73941 9.88905 2.36262 10.9481C2.02769 11.8896 1.00479 14.2884 0 15.3747C1.43929 14.6414 3.65708 13.5642 4.75239 12.9849C4.26357 12.2969 3.63354 10.5245 5.02395 8.93857C5.97443 7.66221 8.06548 5.67979 8.50001 5.67979C8.93454 5.67979 11.0256 7.66222 11.976 8.93857C13.3665 10.5245 12.7364 12.2969 12.2476 12.9849C13.3429 13.5642 15.5607 14.6414 17 15.3747C15.9952 14.2884 14.9723 11.8896 14.6374 10.9482C14.2606 9.88905 13.2796 7.74368 11.976 6.25008Z" fill="#D1B1FF"/>
<path d="M8.50001 0.737305L16.1338 -1.65538L8.50001 -26.0109L0.866204 -1.65538L8.50001 0.737305ZM11.976 6.25008L5.50067 10.9479L5.71201 11.2392L5.94865 11.5103L11.976 6.25008ZM14.6374 10.9482L22.1746 8.26665L22.1746 8.26665L14.6374 10.9482ZM17 15.3747L13.3686 22.503L22.8728 9.94233L17 15.3747ZM12.2476 12.9849L5.72617 8.35123L0.440697 15.79L8.5072 20.0566L12.2476 12.9849ZM11.976 8.93857L5.5597 13.7167L5.75024 13.9726L5.96054 14.2124L11.976 8.93857ZM5.02395 6.25007L11.0514 11.5103L11.288 11.2392L11.4993 10.9479L5.02395 6.25007ZM2.36262 10.9481L-5.17459 8.26664L-5.17459 8.26664L2.36262 10.9481ZM0 15.3747L-5.87279 9.94232L3.6314 22.503L0 15.3747ZM4.75239 12.9849L8.49281 20.0566L16.5593 15.79L11.2738 8.35123L4.75239 12.9849ZM5.02395 8.93857L11.0395 14.2124L11.2498 13.9726L11.4403 13.7167L5.02395 8.93857ZM0.866204 3.12999C1.6988 5.78638 2.75378 7.72804 4.04476 9.33994C4.60556 10.0401 5.16366 10.6106 5.38201 10.8394C5.66011 11.1308 5.59646 11.0799 5.50067 10.9479L18.4514 1.55225C17.8532 0.727737 17.2465 0.0964247 16.9568 -0.207071C16.6074 -0.573172 16.5732 -0.612078 16.5331 -0.662069C16.5269 -0.669817 16.5264 -0.670913 16.5253 -0.672586C16.5237 -0.674905 16.5091 -0.697129 16.4825 -0.748443C16.4291 -0.851192 16.3013 -1.12093 16.1338 -1.65538L0.866204 3.12999ZM5.94865 11.5103C6.06023 11.6382 6.30309 11.9775 6.59221 12.5208C6.86975 13.0422 7.04832 13.4839 7.10018 13.6297L22.1746 8.26665C21.6243 6.71989 20.2264 3.5369 18.0034 0.989801L5.94865 11.5103ZM7.10017 13.6297C7.37345 14.3978 7.8365 15.5245 8.40071 16.662C8.8825 17.6333 9.80385 19.3763 11.1272 20.807L22.8728 9.94233C23.1055 10.1939 23.16 10.3144 23.0597 10.1521C22.9824 10.0269 22.8695 9.82485 22.7343 9.55222C22.603 9.28747 22.4779 9.0115 22.3717 8.76109C22.2623 8.50306 22.1957 8.32594 22.1746 8.26665L7.10017 13.6297ZM20.6314 8.24635C18.8797 7.35395 17.0675 6.48415 15.988 5.91317L8.5072 20.0566C9.61831 20.6443 12.2417 21.9289 13.3686 22.503L20.6314 8.24635ZM18.7691 17.6186C20.457 15.243 22.7599 9.10362 17.9916 3.6647L5.96054 14.2124C5.13408 13.2698 4.75941 11.9797 4.83168 10.8066C4.88774 9.8966 5.19548 9.09813 5.72617 8.35123L18.7691 17.6186ZM18.3924 4.16044C17.542 3.01842 16.4245 1.84946 15.5284 1.0058C15.0655 0.57003 14.5044 0.072134 13.9198 -0.370162C13.6419 -0.580468 13.2017 -0.898359 12.6626 -1.20212C12.3929 -1.35412 11.9629 -1.57992 11.4175 -1.78514C10.9633 -1.95607 9.89911 -2.32021 8.50001 -2.32021V13.6798C7.77648 13.6798 7.18357 13.5797 6.77795 13.4878C6.36206 13.3936 6.02397 13.2806 5.78289 13.1899C5.31632 13.0143 4.97681 12.8323 4.8077 12.7371C4.46988 12.5467 4.27174 12.3936 4.26578 12.3891C4.2252 12.3584 4.3277 12.4359 4.56073 12.6553C4.7711 12.8534 5.00147 13.0858 5.20857 13.3106C5.31003 13.4208 5.39465 13.5169 5.46047 13.5948C5.49285 13.6332 5.51772 13.6636 5.53556 13.6859C5.55368 13.7086 5.56121 13.7187 5.5597 13.7167L18.3924 4.16044ZM0.866204 -1.65538C0.698692 -1.12094 0.57094 -0.85121 0.517575 -0.748469C0.490923 -0.697158 0.476304 -0.674937 0.474784 -0.672621C0.473688 -0.670949 0.473107 -0.669854 0.466901 -0.662107C0.426861 -0.612113 0.39261 -0.573209 0.0432109 -0.2071C-0.246439 0.0964009 -0.853232 0.727721 -1.45142 1.55225L11.4993 10.9479C11.4035 11.0799 11.3399 11.1308 11.618 10.8394C11.8363 10.6106 12.3944 10.0402 12.9552 9.33998C14.2462 7.72808 15.3012 5.7864 16.1338 3.12999L0.866204 -1.65538ZM-1.00344 0.989798C-3.22636 3.5369 -4.6243 6.71988 -5.17459 8.26664L9.89982 13.6297C9.95168 13.4839 10.1302 13.0422 10.4078 12.5208C10.6969 11.9775 10.9398 11.6382 11.0514 11.5103L-1.00344 0.989798ZM-5.17459 8.26664C-5.19569 8.32593 -5.26233 8.50305 -5.37174 8.76109C-5.47792 9.01149 -5.60296 9.28747 -5.73428 9.55221C-5.86951 9.82485 -5.98238 10.0269 -6.05972 10.152C-6.16005 10.3144 -6.10549 10.1939 -5.87279 9.94232L5.87279 20.807C7.19615 19.3763 8.1175 17.6333 8.59929 16.662C9.1635 15.5245 9.62655 14.3978 9.89983 13.6297L-5.17459 8.26664ZM3.6314 22.503C4.75825 21.9289 7.38169 20.6443 8.49281 20.0566L1.01197 5.91316C-0.0675347 6.48414 -1.87966 7.35395 -3.6314 8.24634L3.6314 22.503ZM11.2738 8.35123C11.8045 9.09812 12.1123 9.89659 12.1683 10.8066C12.2406 11.9797 11.8659 13.2698 11.0395 14.2124L-0.991553 3.6647C-5.75992 9.10362 -3.45695 15.243 -1.76906 17.6185L11.2738 8.35123ZM11.4403 13.7167C11.4388 13.7187 11.4463 13.7086 11.4644 13.6859C11.4823 13.6636 11.5071 13.6332 11.5395 13.5948C11.6053 13.5169 11.69 13.4208 11.7914 13.3106C11.9985 13.0858 12.2289 12.8534 12.4393 12.6553C12.6723 12.4359 12.7748 12.3585 12.7342 12.3892C12.7282 12.3937 12.5301 12.5467 12.1923 12.7371C12.0232 12.8324 11.6837 13.0143 11.2171 13.1899C10.976 13.2806 10.638 13.3936 10.2221 13.4878C9.81645 13.5797 9.22354 13.6798 8.50001 13.6798V-2.32021C7.10092 -2.32021 6.03677 -1.95607 5.5825 -1.78514C5.0371 -1.57993 4.60719 -1.35414 4.33746 -1.20214C3.7984 -0.898379 3.35819 -0.580493 3.08024 -0.370188C2.49568 0.072104 1.93454 0.569997 1.47168 1.00576C0.575556 1.84942 -0.541932 3.01839 -1.39239 4.16044L11.4403 13.7167Z" fill="#D1B1FF" mask="url(#path-1-inside-1_36_649)"/>
<path d="M11.2428 12.4404C9.07028 12.0247 8.52715 8.61097 8.52715 6.95605C8.52715 8.61097 7.98402 12.0247 5.8115 12.4404C8.6716 13.5661 8.24788 17.8092 8.52715 20.2627C8.80642 17.8092 8.3827 13.5661 11.2428 12.4404Z" fill="#D1B1FF"/>
</svg>