<svg xmlns:xlink="http://www.w3.org/1999/xlink" xmlns="http://www.w3.org/2000/svg" viewBox="0 0 48 48" width="172" height="172"><path d="M 16.478516 6.9804688 A 2.0002 2.0002 0 0 0 15.085938 10.414062 L 16.671875 12 L 13.267578 12 C 6.5553664 12 2 17.605252 2 24 C 2 30.394748 6.5553664 36 13.267578 36 C 17.489771 36 20.554929 32.92161 22.607422 30.207031 C 24.542235 27.648093 25.610621 25.280328 25.736328 24.998047 A 2.0002 2.0002 0 0 0 25.832031 24.804688 C 25.832031 24.804688 26.855977 22.492453 28.583984 20.207031 C 30.311995 17.92161 32.612615 16 34.732422 16 C 39.33421 16 42 19.348748 42 24 C 42 28.557341 38.806133 32 35 32 C 32.672147 32 30.588572 31.046049 29.369141 29.671875 A 2.0002 2.0002 0 1 0 26.378906 32.328125 C 28.453475 34.665951 31.605853 36 35 36 C 41.193867 36 46 30.488659 46 24 C 46 17.605252 41.444634 12 34.732422 12 C 30.510229 12 27.445071 15.07839 25.392578 17.792969 C 23.457765 20.351907 22.389379 22.719672 22.263672 23.001953 A 2.0002 2.0002 0 0 0 22.167969 23.195312 C 22.167969 23.195312 21.144023 25.507547 19.416016 27.792969 C 17.688005 30.07839 15.387385 32 13.267578 32 C 8.6657901 32 6 28.651252 6 24 C 6 19.348748 8.6657901 16 13.267578 16 L 16.671875 16 L 15.085938 17.585938 A 2.0002 2.0002 0 1 0 17.914062 20.414062 L 22.914062 15.414062 A 2.0002 2.0002 0 0 0 22.914062 12.585938 L 17.914062 7.5859375 A 2.0002 2.0002 0 0 0 16.478516 6.9804688 z"></path></svg>