<svg xmlns:xlink="http://www.w3.org/1999/xlink" xmlns="http://www.w3.org/2000/svg" viewBox="0 0 48 48" width="172" height="172"><path d="M 35.978516 3.9804688 A 2.0002 2.0002 0 0 0 34.585938 7.4140625 L 37.171875 10 L 10 10 C 6.69 10 4 12.69 4 16 L 4 30.919922 L 8 26.919922 L 8 16 C 8 14.9 8.9 14 10 14 L 37.171875 14 L 34.585938 16.585938 A 2.0002 2.0002 0 1 0 37.414062 19.414062 L 43.414062 13.414062 A 2.0002 2.0002 0 0 0 43.414062 10.585938 L 37.414062 4.5859375 A 2.0002 2.0002 0 0 0 35.978516 3.9804688 z M 44 17.080078 L 40 21.080078 L 40 32 C 40 33.1 39.1 34 38 34 L 10.828125 34 L 13.414062 31.414062 A 2.0002 2.0002 0 0 0 11.960938 27.980469 A 2.0002 2.0002 0 0 0 10.585938 28.585938 L 4.5859375 34.585938 A 2.0002 2.0002 0 0 0 4.5859375 37.414062 L 10.585938 43.414062 A 2.0002 2.0002 0 1 0 13.414062 40.585938 L 10.828125 38 L 38 38 C 41.31 38 44 35.31 44 32 L 44 17.080078 z"></path></svg>