<svg width="146" height="146" viewBox="0 0 146 146" fill="none" xmlns="http://www.w3.org/2000/svg">
<path d="M40.3333 24C31.3771 24 24 31.3771 24 40.3333V105.667C24 114.623 31.3771 122 40.3333 122H105.667C114.623 122 122 114.623 122 105.667V40.3333C122 31.3771 114.623 24 105.667 24H40.3333ZM40.3333 34.8889H105.667C108.737 34.8889 111.111 37.2628 111.111 40.3333V105.667C111.111 108.737 108.737 111.111 105.667 111.111H40.3333C37.2628 111.111 34.8889 108.737 34.8889 105.667V40.3333C34.8889 37.2628 37.2628 34.8889 40.3333 34.8889Z"/>
</svg>