<svg xmlns:xlink="http://www.w3.org/1999/xlink" xmlns="http://www.w3.org/2000/svg" viewBox="0 0 48 48" width="172" height="172"><path d="M 24.5 4 C 24.18325 4 23.866109 4.1007813 23.599609 4.3007812 L 15.599609 10.300781 C 15.276609 10.543781 15.065672 10.906594 15.013672 11.308594 L 14.126953 18.177734 L 16.806641 20.855469 L 17.689453 14 L 23 14 L 23 27.050781 L 26 30.050781 L 26 25 L 27.5 25 A 1.50015 1.50015 0 1 0 27.5 22 L 26 22 L 26 20 L 27.5 20 A 1.50015 1.50015 0 1 0 27.5 17 L 26 17 L 26 14 L 31.310547 14 L 33.634766 32 L 25.121094 32 L 7.5605469 14.439453 A 1.50015 1.50015 0 0 0 6.484375 13.984375 A 1.50015 1.50015 0 0 0 5.4394531 16.560547 L 13.318359 24.439453 L 11.011719 42.308594 C 10.955719 42.736594 11.087094 43.166234 11.371094 43.490234 C 11.657094 43.813234 12.068 44 12.5 44 L 15 44 L 15 44.5 C 15 45.328 15.672 46 16.5 46 L 18.5 46 C 19.328 46 20 45.328 20 44.5 L 20 44 L 29 44 L 29 44.5 C 29 45.328 29.672 46 30.5 46 L 32.5 46 C 33.328 46 34 45.328 34 44.5 L 34 44 L 36.5 44 C 36.932 44 37.341953 43.814234 37.626953 43.490234 C 37.910953 43.167234 38.042328 42.736594 37.986328 42.308594 L 37.042969 35 L 38.5 35 A 1.50015 1.50015 0 1 0 38.5 32 L 36.65625 32 L 33.986328 11.308594 C 33.934328 10.906594 33.723391 10.543781 33.400391 10.300781 L 25.400391 4.3007812 C 25.133891 4.1007812 24.81675 4 24.5 4 z M 15.996094 27.117188 L 20.878906 32 L 15.365234 32 L 15.996094 27.117188 z"></path></svg>