<svg width="172" height="172" viewBox="0 0 172 172" fill="none" xmlns="http://www.w3.org/2000/svg">
<path d="M39.58 77.8098C38.6303 77.7964 37.6875 77.9718 36.8062 78.3259C35.9249 78.6801 35.1228 79.2058 34.4465 79.8726C33.7702 80.5395 33.2332 81.3341 32.8666 82.2102C32.5 83.0864 32.3113 84.0267 32.3113 84.9765C32.3113 85.9262 32.5 86.8665 32.8666 87.7427C33.2332 88.6189 33.7702 89.4135 34.4465 90.0803C35.1228 90.7471 35.9249 91.2729 36.8062 91.627C37.6875 91.9811 38.6303 92.1566 39.58 92.1432L132.231 92.2168C133.181 92.2302 134.124 92.0548 135.005 91.7007C135.886 91.3465 136.688 90.8208 137.365 90.154C138.041 89.4871 138.578 88.6926 138.945 87.8164C139.311 86.9402 139.5 85.9999 139.5 85.0501C139.5 84.1004 139.311 83.1601 138.945 82.2839C138.578 81.4077 138.041 80.6132 137.365 79.9463C136.688 79.2795 135.886 78.7538 135.005 78.3996C134.124 78.0455 133.181 77.8701 132.231 77.8835L39.58 77.8098Z" fill="currentColor"/>
</svg>