<svg xmlns:xlink="http://www.w3.org/1999/xlink" xmlns="http://www.w3.org/2000/svg" viewBox="0 0 48 48" width="172" height="172"><path d="M 10.5 7 A 1.50015 1.50015 0 0 0 9 8.5 L 9 13.101562 C 6.2229693 13.368919 4 15.657171 4 18.5 L 4 35.5 C 4 38.519774 6.4802259 41 9.5 41 L 38.5 41 C 41.519774 41 44 38.519774 44 35.5 L 44 18.5 C 44 15.657171 41.777031 13.36892 39 13.101562 L 39 8.5 A 1.50015 1.50015 0 0 0 37.5 7 L 27.5 7 A 1.50015 1.50015 0 0 0 26 8.5 L 26 13 L 22 13 L 22 8.5 A 1.50015 1.50015 0 0 0 20.5 7 L 10.5 7 z M 12 10 L 19 10 L 19 13 L 12 13 L 12 10 z M 29 10 L 36 10 L 36 13 L 29 13 L 29 10 z M 9.5 16 L 10.253906 16 A 1.50015 1.50015 0 0 0 10.740234 16 L 20.253906 16 A 1.50015 1.50015 0 0 0 20.740234 16 L 27.253906 16 A 1.50015 1.50015 0 0 0 27.740234 16 L 37.253906 16 A 1.50015 1.50015 0 0 0 37.740234 16 L 38.5 16 C 39.898226 16 41 17.101774 41 18.5 L 41 35.5 C 41 36.898226 39.898226 38 38.5 38 L 9.5 38 C 8.1017741 38 7 36.898226 7 35.5 L 7 18.5 C 7 17.101774 8.1017741 16 9.5 16 z"></path></svg>