<svg xmlns:xlink="http://www.w3.org/1999/xlink" xmlns="http://www.w3.org/2000/svg" viewBox="0 0 48 48" width="172" height="172"><path d="M 24 8 C 15.181311 8 8 15.181311 8 24 L 8 24.5 A 1.50015 1.50015 0 1 0 11 24.5 L 11 24 C 11 16.802689 16.802689 11 24 11 C 31.197311 11 37 16.802689 37 24 L 37 24.5 A 1.50015 1.50015 0 1 0 40 24.5 L 40 24 C 40 15.181311 32.818689 8 24 8 z M 24 14 C 18.486 14 14 18.486 14 24 C 14 29.514 18.486 34 24 34 C 29.514 34 34 29.514 34 24 C 34 18.486 29.514 14 24 14 z"></path></svg>