<svg width="172" height="172" viewBox="0 0 172 172" fill="none" xmlns="http://www.w3.org/2000/svg">
<path d="M45.9669 35.8328C43.1684 33.0343 38.6312 33.0343 35.8328 35.8328C33.0343 38.6312 33.0343 43.1684 35.8328 45.9669L75.8656 85.9993L35.8328 126.032C33.0343 128.83 33.0343 133.367 35.8328 136.166C38.6312 138.965 43.1684 138.965 45.9669 136.166L85.9993 96.1337L126.032 136.166C128.83 138.965 133.367 138.965 136.166 136.166C138.965 133.367 138.965 128.83 136.166 126.032L96.1337 85.9993L136.166 45.9669C138.965 43.1684 138.965 38.6312 136.166 35.8328C133.367 33.0343 128.83 33.0343 126.032 35.8328L85.9993 75.8656L45.9669 35.8328Z" fill="currentColor"/>
</svg>
